<svg width="41" height="40" viewBox="0 0 41 40" fill="none" xmlns="http://www.w3.org/2000/svg">
<path d="M29.5 13.9795H11.5C11.09 13.9795 10.75 13.4978 10.75 12.917C10.75 12.3362 11.09 11.8545 11.5 11.8545H29.5C29.91 11.8545 30.25 12.3362 30.25 12.917C30.25 13.4978 29.91 13.9795 29.5 13.9795Z" fill="white"/>
<path d="M29.5 21.0625H11.5C11.09 21.0625 10.75 20.5808 10.75 20C10.75 19.4192 11.09 18.9375 11.5 18.9375H29.5C29.91 18.9375 30.25 19.4192 30.25 20C30.25 20.5808 29.91 21.0625 29.5 21.0625Z" fill="white"/>
<path d="M29.5 28.1455H11.5C11.09 28.1455 10.75 27.6638 10.75 27.083C10.75 26.5022 11.09 26.0205 11.5 26.0205H29.5C29.91 26.0205 30.25 26.5022 30.25 27.083C30.25 27.6638 29.91 28.1455 29.5 28.1455Z" fill="white"/>
</svg>
